<svg width="281" height="57" viewBox="0 0 281 57" fill="none" xmlns="http://www.w3.org/2000/svg">
<g clip-path="url(#clip0_1276_223)">
<path d="M17.8347 23.8127L28.7129 12.939L39.5954 23.8216L45.9215 17.4911L28.7129 0.278076L11.5043 17.4867L17.8347 23.8127Z" fill="url(#paint0_linear_1276_223)"/>
<path d="M0.703308 28.2844L7.03146 21.9563L13.3596 28.2844L7.03146 34.6126L0.703308 28.2844Z" fill="url(#paint1_linear_1276_223)"/>
<path d="M17.835 32.7534L28.7132 43.6316L39.5957 32.749L45.9262 39.0706L45.9218 39.0751L28.7132 56.2881L11.5046 39.0839L11.4957 39.0751L17.835 32.7534Z" fill="url(#paint2_linear_1276_223)"/>
<path d="M44.0551 28.2859L50.3832 21.9577L56.7114 28.2859L50.3832 34.614L44.0551 28.2859Z" fill="url(#paint3_linear_1276_223)"/>
<path d="M35.1323 28.281L28.7133 21.8577L23.9666 26.6044L23.418 27.1485L22.2944 28.2722L22.2856 28.281L22.2944 28.2943L28.7133 34.7088L35.1323 28.2855L35.1367 28.281H35.1323Z" fill="url(#paint4_linear_1276_223)"/>
<path d="M66.585 13.8501H80.3519C83.7671 13.8501 86.3506 14.7349 88.1024 16.5044C88.7624 17.158 89.2827 17.939 89.6318 18.7998C89.9808 19.6606 90.1513 20.5834 90.1329 21.5121V21.5962C90.1448 22.357 90.0388 23.1151 89.8188 23.8435C89.6228 24.4705 89.3383 25.0664 88.9739 25.613C88.6341 26.1284 88.2231 26.5931 87.7529 26.9932C87.2936 27.3886 86.7904 27.73 86.2532 28.0107C87.8022 28.5502 89.1952 29.4617 90.3099 30.665C91.2949 31.7857 91.7874 33.334 91.7874 35.31V35.394C91.8154 36.6281 91.5469 37.8509 91.0044 38.9596C90.4788 39.9812 89.7082 40.8567 88.7615 41.5077C87.6913 42.2252 86.4997 42.7424 85.2446 43.034C83.7535 43.3876 82.2249 43.5584 80.6925 43.5427H66.585V13.8501ZM78.9717 25.8563C80.1627 25.9139 81.348 25.6576 82.409 25.1131C82.8227 24.8714 83.1605 24.5188 83.3841 24.095C83.6077 23.6712 83.7082 23.1933 83.6742 22.7154V22.6314C83.6961 22.191 83.6066 21.7522 83.4141 21.3556C83.2216 20.9589 82.9322 20.6172 82.5726 20.3619C81.8383 19.8399 80.778 19.5789 79.3919 19.5789H72.9509V25.8563H78.9717ZM80.7102 37.8227C81.8969 37.8892 83.078 37.6177 84.1165 37.0397C84.5211 36.7798 84.8486 36.4161 85.0649 35.9866C85.2812 35.5572 85.3784 35.0776 85.3464 34.5978V34.5137C85.3623 34.0576 85.2662 33.6046 85.0664 33.1943C84.8667 32.7841 84.5694 32.429 84.2006 32.1602C83.4397 31.5704 82.2099 31.2755 80.5111 31.2755H72.9509V37.8227H80.7102Z" fill="url(#paint5_linear_1276_223)"/>
<path d="M99.9888 13.8501H106.523V43.5515H99.9888V13.8501Z" fill="url(#paint6_linear_1276_223)"/>
<path d="M116.41 13.8501H122.436L136.362 32.1293V13.8501H142.812V43.5515H137.251L122.869 24.6707V43.5515H116.41V13.8501Z" fill="url(#paint7_linear_1276_223)"/>
<path d="M162.595 13.6382H168.611L181.338 43.552H174.517L171.801 36.8897H159.241L156.525 43.552H149.863L162.595 13.6382ZM169.469 31.1211L165.514 21.486L161.577 31.1211H169.469Z" fill="url(#paint8_linear_1276_223)"/>
<path d="M188.403 13.8501H194.429L208.346 32.1293V13.8501H214.796V43.5515H209.235L194.853 24.6707V43.5515H188.403V13.8501Z" fill="url(#paint9_linear_1276_223)"/>
<path d="M238.313 44.0737C236.231 44.0915 234.166 43.6882 232.244 42.8881C230.434 42.1407 228.792 41.0387 227.414 39.6468C226.037 38.2549 224.952 36.6014 224.223 34.7837C223.455 32.8824 223.065 30.8491 223.078 28.7983V28.7142C223.043 24.6719 224.599 20.7779 227.408 17.8715C228.791 16.4518 230.446 15.3262 232.275 14.5625C234.264 13.7386 236.399 13.3277 238.552 13.3548C239.825 13.3453 241.096 13.4593 242.348 13.6954C243.418 13.8979 244.465 14.2107 245.471 14.6288C246.384 15.0131 247.252 15.4967 248.059 16.071C248.846 16.6311 249.586 17.2555 250.271 17.9378L246.117 22.7332C245.055 21.754 243.864 20.9249 242.578 20.2692C241.314 19.6647 239.927 19.3619 238.526 19.3844C237.36 19.372 236.204 19.6077 235.137 20.0761C234.069 20.5444 233.113 21.2345 232.332 22.1006C231.558 22.9646 230.952 23.9652 230.545 25.0513C230.119 26.1991 229.904 27.4147 229.912 28.639V28.7231C229.908 29.9456 230.122 31.1591 230.545 32.3064C230.947 33.3964 231.547 34.4027 232.314 35.2747C233.089 36.1516 234.043 36.8519 235.111 37.3281C236.18 37.8044 237.338 38.0455 238.508 38.0352C239.997 38.0821 241.476 37.7615 242.812 37.1018C244.085 36.4084 245.261 35.5517 246.311 34.5537L250.47 38.7563C249.736 39.5532 248.941 40.2927 248.094 40.9682C247.262 41.6263 246.358 42.1887 245.4 42.6448C244.379 43.1254 243.304 43.4804 242.197 43.7021C240.919 43.9584 239.617 44.0829 238.313 44.0737Z" fill="url(#paint10_linear_1276_223)"/>
<path d="M258.18 13.8501H280.533V19.663H264.608V25.6882H278.631V31.5011H264.63V37.7387H280.755V43.5515H258.193L258.18 13.8501Z" fill="url(#paint11_linear_1276_223)"/>
</g>
<defs>
<linearGradient id="paint0_linear_1276_223" x1="28.7129" y1="0.278076" x2="28.7129" y2="23.8216" gradientUnits="userSpaceOnUse">
<stop stop-color="#FA465A"/>
<stop offset="0.523958" stop-color="#AD05BC"/>
<stop offset="1" stop-color="#FF1761"/>
</linearGradient>
<linearGradient id="paint1_linear_1276_223" x1="3.86739" y1="25.1203" x2="10.1955" y2="31.4485" gradientUnits="userSpaceOnUse">
<stop stop-color="#FA465A"/>
<stop offset="0.523958" stop-color="#AD05BC"/>
<stop offset="1" stop-color="#FF1761"/>
</linearGradient>
<linearGradient id="paint2_linear_1276_223" x1="28.711" y1="32.749" x2="28.711" y2="56.2881" gradientUnits="userSpaceOnUse">
<stop stop-color="#FA465A"/>
<stop offset="0.523958" stop-color="#AD05BC"/>
<stop offset="1" stop-color="#FF1761"/>
</linearGradient>
<linearGradient id="paint3_linear_1276_223" x1="47.2191" y1="25.1218" x2="53.5473" y2="31.45" gradientUnits="userSpaceOnUse">
<stop stop-color="#FA465A"/>
<stop offset="0.523958" stop-color="#AD05BC"/>
<stop offset="1" stop-color="#FF1761"/>
</linearGradient>
<linearGradient id="paint4_linear_1276_223" x1="28.7111" y1="21.8577" x2="28.7111" y2="34.7088" gradientUnits="userSpaceOnUse">
<stop stop-color="#FA465A"/>
<stop offset="0.523958" stop-color="#AD05BC"/>
<stop offset="1" stop-color="#FF1761"/>
</linearGradient>
<linearGradient id="paint5_linear_1276_223" x1="79.1872" y1="13.8501" x2="79.1872" y2="43.5437" gradientUnits="userSpaceOnUse">
<stop stop-color="#FA465A"/>
<stop offset="0.523958" stop-color="#AD05BC"/>
<stop offset="1" stop-color="#FF1761"/>
</linearGradient>
<linearGradient id="paint6_linear_1276_223" x1="103.256" y1="13.8501" x2="103.256" y2="43.5515" gradientUnits="userSpaceOnUse">
<stop stop-color="#FA465A"/>
<stop offset="0.523958" stop-color="#AD05BC"/>
<stop offset="1" stop-color="#FF1761"/>
</linearGradient>
<linearGradient id="paint7_linear_1276_223" x1="129.611" y1="13.8501" x2="129.611" y2="43.5515" gradientUnits="userSpaceOnUse">
<stop stop-color="#FA465A"/>
<stop offset="0.523958" stop-color="#AD05BC"/>
<stop offset="1" stop-color="#FF1761"/>
</linearGradient>
<linearGradient id="paint8_linear_1276_223" x1="165.601" y1="13.6382" x2="165.601" y2="43.552" gradientUnits="userSpaceOnUse">
<stop stop-color="#FA465A"/>
<stop offset="0.523958" stop-color="#AD05BC"/>
<stop offset="1" stop-color="#FF1761"/>
</linearGradient>
<linearGradient id="paint9_linear_1276_223" x1="201.6" y1="13.8501" x2="201.6" y2="43.5515" gradientUnits="userSpaceOnUse">
<stop stop-color="#FA465A"/>
<stop offset="0.523958" stop-color="#AD05BC"/>
<stop offset="1" stop-color="#FF1761"/>
</linearGradient>
<linearGradient id="paint10_linear_1276_223" x1="236.773" y1="13.3535" x2="236.773" y2="44.0743" gradientUnits="userSpaceOnUse">
<stop stop-color="#FA465A"/>
<stop offset="0.523958" stop-color="#AD05BC"/>
<stop offset="1" stop-color="#FF1761"/>
</linearGradient>
<linearGradient id="paint11_linear_1276_223" x1="269.467" y1="13.8501" x2="269.467" y2="43.5515" gradientUnits="userSpaceOnUse">
<stop stop-color="#FA465A"/>
<stop offset="0.523958" stop-color="#AD05BC"/>
<stop offset="1" stop-color="#FF1761"/>
</linearGradient>
<clipPath id="clip0_1276_223">
<rect width="280.045" height="56.0098" fill="white" transform="translate(0.70578 0.278076)"/>
</clipPath>
</defs>
</svg>
