<svg width="219" height="219" viewBox="0 0 219 219" fill="none" xmlns="http://www.w3.org/2000/svg">
<path fill-rule="evenodd" clip-rule="evenodd" d="M23.4534 97.2792H31.5356C34.689 97.2792 36.8571 97.8706 38.435 99.4473C39.8153 101.024 40.4067 103.193 40.4067 105.953C40.4067 108.712 39.8153 110.882 38.435 112.458C36.8571 113.837 34.689 114.626 31.5356 114.626H23.4534V97.2792ZM9.65356 123.497H37.0547C42.7723 123.497 47.3061 122.118 50.2631 119.359C53.4165 116.598 54.7969 112.064 54.9944 105.954C54.7969 99.4484 53.4165 94.9136 50.2631 92.3515C47.1086 89.592 42.5748 88.2117 36.6608 88.4092H9.65356V123.497ZM68.9906 106.742C69.3845 104.967 70.1734 103.785 71.3562 102.996C72.5391 102.404 74.3133 102.01 76.4825 102.01C78.6506 102.01 80.2273 102.404 81.6077 103.193C82.7905 104.179 83.5783 105.164 83.7758 106.742H68.9906ZM82.7893 115.416C82.1979 116.203 81.4101 116.796 80.4249 117.189C79.4384 117.585 78.0592 117.781 76.4825 117.781C74.7083 117.781 73.1305 117.583 72.1452 116.992C70.9623 116.401 70.1746 115.808 69.7807 115.021C69.1893 114.232 68.9917 113.442 68.9917 112.853H96.1965C96.1965 108.318 95.21 104.966 93.4358 102.404C91.8591 99.8423 89.2971 98.0681 86.3389 97.0817C83.1855 95.8989 79.6371 95.505 75.6936 95.505C69.5832 95.505 64.8519 96.6878 61.4998 99.2509C58.1489 101.813 56.5722 105.361 56.3747 110.094C56.5711 115.023 58.3453 118.57 61.6962 120.935C65.2447 123.499 70.1734 124.683 76.6789 124.683C79.6359 124.683 82.0016 124.485 84.1697 123.894C86.3378 123.499 88.3095 122.907 89.8862 122.121C91.4641 121.332 92.6469 120.345 93.6322 119.36C94.815 118.176 95.4064 116.797 95.9978 115.418H82.7893V115.416ZM99.3487 123.497H111.572V88.4081H99.3487V123.497ZM115.908 131.581H128.325V120.737C129.509 122.118 130.889 123.102 132.664 123.694C134.437 124.285 136.606 124.68 138.972 124.68C141.732 124.68 144.294 124.089 146.66 123.101C148.828 122.117 150.799 120.538 152.178 118.37C153.559 116.202 154.346 113.639 154.346 110.289C154.346 106.937 153.559 104.177 152.178 102.009C150.799 99.8412 148.828 98.2633 146.66 97.278C144.294 96.2927 141.731 95.8977 138.972 95.8977C136.409 95.8977 134.043 96.0952 132.27 96.8841C130.497 97.4756 129.115 98.4609 127.934 99.8412V96.4891H115.908V131.581ZM128.327 110.29C128.327 108.318 128.722 106.742 129.906 105.755C130.89 104.572 132.666 104.177 135.032 104.177C137.397 104.177 139.17 104.769 140.156 105.755C141.34 106.938 141.735 108.317 141.735 110.29C141.735 112.063 141.143 113.442 140.156 114.626C138.974 115.808 137.2 116.203 135.032 116.399C132.666 116.399 130.891 115.808 129.906 114.626C128.72 113.64 128.327 112.064 128.327 110.29ZM157.305 123.497H169.725V111.078C169.725 108.91 170.316 107.333 171.302 106.15C172.288 105.164 173.667 104.771 175.44 104.771C176.822 104.771 178.004 105.165 178.792 105.954C179.581 106.545 179.974 107.924 180.172 109.501V123.497H192.395V106.347C192.395 102.602 191.213 100.039 189.045 98.2645C186.679 96.6878 183.919 95.7025 180.567 95.8989C177.61 95.8989 175.049 96.2939 173.272 97.2792C171.499 98.0681 170.316 99.0534 169.725 99.8423V88.4081H157.305V123.497Z" fill="url(#paint0_linear_1276_173)"/>
<path fill-rule="evenodd" clip-rule="evenodd" d="M209.152 94.322V87.2251L196.339 90.7735L209.152 94.322Z" fill="#C9322D"/>
<path fill-rule="evenodd" clip-rule="evenodd" d="M196.732 123.498H209.151V96.4907H196.732V123.498Z" fill="url(#paint1_linear_1276_173)"/>
<defs>
<linearGradient id="paint0_linear_1276_173" x1="101.024" y1="88.3906" x2="101.024" y2="131.581" gradientUnits="userSpaceOnUse">
<stop stop-color="#FA465A"/>
<stop offset="0.523958" stop-color="#AD05BC"/>
<stop offset="1" stop-color="#FF1761"/>
</linearGradient>
<linearGradient id="paint1_linear_1276_173" x1="202.942" y1="96.4907" x2="202.942" y2="123.498" gradientUnits="userSpaceOnUse">
<stop stop-color="#FA465A"/>
<stop offset="0.523958" stop-color="#AD05BC"/>
<stop offset="1" stop-color="#FF1761"/>
</linearGradient>
</defs>
</svg>
