<svg width="232" height="123" viewBox="0 0 232 123" fill="none" xmlns="http://www.w3.org/2000/svg">
<g clip-path="url(#clip0_1276_178)">
<path d="M124.04 57.667C123.388 58.0252 122.651 58.2015 121.907 58.1776C121.615 58.1776 120.977 58.1776 119.919 58.0317V61.0224C120.83 61.2582 121.769 61.3687 122.709 61.3506C124.015 61.3987 125.3 61.007 126.356 60.2383C127.49 59.302 128.374 58.0989 128.928 56.737L137.115 38.2825H133.249L128.289 50.3727L123.475 38.2825H119.554L126.283 54.1658L125.591 55.7158C125.284 56.5088 124.744 57.1895 124.04 57.667Z" fill="url(#paint0_linear_1276_178)"/>
<path d="M143.172 52.6491C143.811 53.505 144.659 54.183 145.634 54.6186C146.698 55.1039 147.856 55.3468 149.026 55.3298C150.119 55.3727 151.209 55.1745 152.218 54.749C153.226 54.3235 154.129 53.6813 154.861 52.8679C156.445 51.2027 157.316 48.9842 157.286 46.686C157.323 45.5324 157.126 44.3833 156.706 43.3082C156.286 42.2331 155.652 41.2543 154.843 40.4312C154.083 39.6264 153.163 38.9899 152.143 38.5627C151.122 38.1355 150.023 37.9272 148.916 37.9511H149.044C147.975 37.9078 146.911 38.1087 145.931 38.5384C144.952 38.9681 144.083 39.6154 143.391 40.4312V29.6721H139.744V55.0197H143.099V52.6491H143.172ZM144.704 42.7106C145.186 42.2404 145.756 41.8708 146.382 41.6234C147.009 41.3761 147.678 41.2559 148.351 41.27C149.03 41.2581 149.705 41.3863 150.332 41.6467C150.96 41.9071 151.527 42.2941 151.998 42.7836C152.492 43.2956 152.877 43.9018 153.131 44.5661C153.384 45.2303 153.502 45.939 153.475 46.6496C153.507 47.3718 153.393 48.093 153.139 48.7699C152.885 49.4468 152.497 50.0654 151.998 50.5885C151.537 51.0951 150.974 51.4972 150.344 51.7677C149.715 52.0382 149.036 52.1709 148.351 52.1567C147.005 52.2036 145.695 51.7189 144.704 50.8073C144.176 50.2806 143.767 49.6465 143.506 48.9479C143.245 48.2494 143.137 47.5028 143.19 46.759C143.14 46.0153 143.249 45.2694 143.51 44.5713C143.771 43.8731 144.178 43.2387 144.704 42.7106Z" fill="url(#paint1_linear_1276_178)"/>
<path d="M111.187 77.7789C110.253 77.7452 109.322 77.9079 108.455 78.2566C107.588 78.6053 106.804 79.1321 106.154 79.8031V78.1619H102.78V94.8111H106.427V84.8726C106.402 84.3653 106.483 83.8583 106.665 83.3841C106.847 82.9099 107.127 82.479 107.485 82.119C107.85 81.7614 108.284 81.4816 108.76 81.2967C109.237 81.1117 109.746 81.0255 110.257 81.0431C110.753 81.0305 111.247 81.1194 111.708 81.3044C112.169 81.4894 112.587 81.7666 112.937 82.119C113.287 82.4948 113.558 82.937 113.733 83.4195C113.909 83.9019 113.985 84.4147 113.959 84.9273V94.8111H117.606V84.435C117.69 82.6824 117.096 80.9646 115.946 79.639C115.334 79.0037 114.592 78.5085 113.77 78.1874C112.949 77.8663 112.067 77.7269 111.187 77.7789Z" fill="url(#paint2_linear_1276_178)"/>
<path d="M129.442 77.7659C128.303 77.7659 127.176 77.9914 126.125 78.4294C125.073 78.8674 124.119 79.5093 123.317 80.318C122.515 81.1267 121.882 82.0862 121.452 83.1411C121.023 84.196 120.807 85.3255 120.817 86.4643C120.787 87.6176 121 88.7642 121.443 89.8294C121.886 90.8946 122.549 91.8544 123.388 92.6462C124.238 93.4636 125.241 94.1051 126.339 94.5338C127.438 94.9625 128.61 95.1701 129.789 95.1445C132.288 95.1687 134.697 94.213 136.5 92.4821L134.804 90.0568C133.479 91.2884 131.743 91.9838 129.935 92.008C128.625 92.0413 127.342 91.637 126.288 90.8591C125.275 90.0601 124.62 88.8934 124.464 87.6132H136.992C137.171 86.8857 137.251 86.1373 137.229 85.3884C137.26 84.3718 137.078 83.36 136.695 82.4178C136.312 81.4757 135.736 80.6241 135.004 79.9177C134.275 79.1957 133.405 78.632 132.448 78.2617C131.491 77.8915 130.468 77.7227 129.442 77.7659ZM124.464 84.8778C124.711 83.7066 125.356 82.6566 126.288 81.9054C127.151 81.1791 128.241 80.779 129.369 80.7748C130.492 80.7489 131.581 81.1534 132.415 81.9054C132.805 82.2926 133.111 82.7569 133.311 83.2687C133.512 83.7804 133.604 84.3285 133.582 84.8778H124.464Z" fill="url(#paint3_linear_1276_178)"/>
<path d="M169.522 55.3679C172.021 55.3922 174.43 54.4364 176.233 52.7055L174.519 50.2802C173.195 51.5252 171.449 52.2224 169.631 52.2314C168.322 52.2647 167.038 51.8604 165.984 51.0825C164.972 50.2835 164.316 49.1168 164.161 47.8366H176.616C176.832 47.1147 176.942 46.3654 176.944 45.6118C176.975 44.5952 176.793 43.5834 176.41 42.6412C176.027 41.6991 175.451 40.8475 174.719 40.1411C173.997 39.4349 173.141 38.8793 172.202 38.5068C171.263 38.1343 170.259 37.9522 169.248 37.9711C168.105 37.9686 166.972 38.1927 165.915 38.6303C164.859 39.068 163.899 39.7105 163.092 40.5209C162.285 41.3313 161.647 42.2935 161.214 43.3519C160.78 44.4103 160.561 45.5441 160.568 46.6877C160.543 47.8387 160.756 48.9825 161.196 50.0467C161.635 51.1108 162.291 52.0721 163.121 52.8696C163.969 53.6903 164.971 54.3339 166.07 54.7629C167.169 55.1918 168.343 55.3975 169.522 55.3679ZM165.875 42.147C166.745 41.4233 167.843 41.0294 168.975 41.0347C170.087 41.0156 171.167 41.4123 172.002 42.147C172.405 42.529 172.725 42.9903 172.942 43.5018C173.158 44.0133 173.267 44.564 173.26 45.1195H164.142C164.366 43.9566 164.985 42.9067 165.893 42.147H165.875Z" fill="url(#paint4_linear_1276_178)"/>
<path d="M149.225 91.897C148.358 91.9734 147.49 91.7549 146.763 91.277C146.469 90.9914 146.244 90.6427 146.105 90.2572C145.966 89.8717 145.917 89.4597 145.961 89.0522V81.2474H150.939V78.1655H145.961V73.8254H142.314V78.1655H139.615V81.2474H142.332V89.344C142.273 90.1405 142.39 90.9402 142.673 91.6868C142.957 92.4335 143.401 93.109 143.973 93.6659C145.264 94.6742 146.878 95.1796 148.514 95.0883C149.521 95.0608 150.523 94.9325 151.504 94.7053V91.7147C150.501 91.8241 149.808 91.897 149.28 91.897H149.225Z" fill="url(#paint5_linear_1276_178)"/>
<path d="M173.46 88.8459L168.281 77.7769H167.059L161.972 88.9918L157.54 78.1598H153.729L161.188 95.0825H162.409L167.679 84.0682L172.931 95.0825H174.19L181.63 78.1598H177.819L173.46 88.8459Z" fill="url(#paint6_linear_1276_178)"/>
<path d="M191.514 77.7789C190.351 77.7537 189.196 77.9618 188.115 78.3909C187.034 78.82 186.051 79.4614 185.222 80.2772C184.407 81.0813 183.759 82.0395 183.317 83.0961C182.875 84.1526 182.648 85.2865 182.648 86.4317C182.648 87.577 182.875 88.7108 183.317 89.7674C183.759 90.8239 184.407 91.7821 185.222 92.5863C186.918 94.2028 189.171 95.1046 191.514 95.1046C193.856 95.1046 196.109 94.2028 197.805 92.5863C198.632 91.787 199.29 90.8293 199.739 89.7704C200.189 88.7115 200.42 87.5729 200.42 86.4226C200.42 85.2723 200.189 84.1338 199.739 83.0748C199.29 82.0159 198.632 81.0583 197.805 80.259C196.973 79.449 195.989 78.8126 194.909 78.3868C193.828 77.961 192.674 77.7544 191.514 77.7789ZM195.161 90.2521C194.166 91.2234 192.831 91.7671 191.441 91.7671C190.05 91.7671 188.715 91.2234 187.721 90.2521C187.231 89.7484 186.848 89.1514 186.595 88.4966C186.341 87.8419 186.221 87.1427 186.244 86.4409C186.213 85.7326 186.329 85.0256 186.583 84.3637C186.837 83.7019 187.224 83.0992 187.721 82.5931C188.683 81.6117 189.993 81.0483 191.368 81.0248C192.738 81.0328 194.05 81.5836 195.015 82.5566C195.507 83.0659 195.891 83.669 196.145 84.3301C196.399 84.9912 196.517 85.6967 196.492 86.4044C196.56 87.8105 196.083 89.1886 195.161 90.2521Z" fill="url(#paint7_linear_1276_178)"/>
<path d="M207.051 80.3103V78.1402H203.714V94.7712H207.361V85.8722C207.331 85.2427 207.439 84.6143 207.679 84.0313C207.918 83.4484 208.283 82.9251 208.747 82.4986C209.716 81.6763 210.959 81.2469 212.23 81.295H213.306V78.1585C212.872 78.0422 212.424 77.9869 211.974 77.9944C211.028 77.953 210.085 78.1421 209.227 78.5455C208.369 78.9489 207.623 79.5545 207.051 80.3103Z" fill="url(#paint8_linear_1276_178)"/>
<path d="M183.856 46.1452C183.825 45.5156 183.933 44.8868 184.172 44.3036C184.412 43.7205 184.777 43.1974 185.242 42.7716C186.213 41.9489 187.453 41.5138 188.725 41.5498H189.819V38.4315C189.379 38.3165 188.925 38.2613 188.47 38.2674C187.527 38.2325 186.59 38.4267 185.739 38.8332C184.888 39.2397 184.148 39.8465 183.582 40.6016V38.4315H180.227V55.026H183.874V46.1452H183.856Z" fill="url(#paint9_linear_1276_178)"/>
<path d="M216.606 69.4055H220.198V94.7896H216.606V69.4055Z" fill="url(#paint10_linear_1276_178)"/>
<path d="M224.54 85.4399L231.305 78.1638H226.874L220.309 85.4216L227.622 94.7765H231.944L224.54 85.4399Z" fill="url(#paint11_linear_1276_178)"/>
<path d="M117.474 38.3923H113.025L106.478 45.6684L113.791 55.0415H118.112L110.709 45.7049L117.474 38.3923Z" fill="url(#paint12_linear_1276_178)"/>
<path d="M102.78 29.6541H106.373V55.0381H102.78V29.6541Z" fill="url(#paint13_linear_1276_178)"/>
<path d="M36.9258 61.4178L82.5151 87.5314C82.8814 87.7516 83.2999 87.8703 83.7273 87.8752C84.1547 87.8802 84.5758 87.7712 84.9472 87.5595C85.3185 87.3478 85.6268 87.0411 85.8404 86.6708C86.0539 86.3005 86.165 85.88 86.1622 85.4525V37.3467C86.1676 36.9185 86.0578 36.4968 85.8443 36.1256C85.6308 35.7544 85.3215 35.4474 84.9486 35.2368C84.5758 35.0261 84.1532 34.9195 83.7251 34.9282C83.297 34.9369 82.879 35.0605 82.5151 35.2861L36.9258 61.4178Z" fill="url(#paint14_linear_1276_178)"/>
<path d="M81.5478 23.7269L50.383 0.804652C50.059 0.55705 49.6791 0.393122 49.2767 0.327379C48.8744 0.261635 48.462 0.296103 48.0761 0.427732C47.6902 0.559361 47.3428 0.784091 47.0645 1.08203C46.7862 1.37997 46.5856 1.74192 46.4805 2.13586L35.1014 53.1958L81.2742 27.6658C81.6256 27.4851 81.9244 27.2168 82.1418 26.8869C82.3592 26.5571 82.4878 26.1767 82.5153 25.7825C82.5428 25.3884 82.4682 24.9939 82.2987 24.637C82.1292 24.2801 81.8706 23.9729 81.5478 23.7452" fill="url(#paint15_linear_1276_178)"/>
<path d="M50.3465 122.018L81.5478 99.0953C81.8708 98.8645 82.1296 98.5552 82.2997 98.1966C82.4699 97.838 82.5458 97.4419 82.5202 97.0457C82.4947 96.6496 82.3685 96.2665 82.1537 95.9328C81.9388 95.599 81.6424 95.3255 81.2925 95.1381L35.1014 69.6082L46.4805 120.668C46.5749 121.065 46.7664 121.432 47.0377 121.736C47.309 122.041 47.6518 122.273 48.035 122.412C48.4183 122.551 48.8302 122.593 49.2337 122.534C49.6371 122.475 50.0195 122.316 50.3465 122.072" fill="url(#paint16_linear_1276_178)"/>
<path d="M25.074 60.4949L36.9272 5.04014C37.0177 4.58075 36.9691 4.1048 36.7875 3.67321C36.606 3.24161 36.2998 2.87401 35.9081 2.61746C35.5164 2.36091 35.0571 2.22708 34.5889 2.2331C34.1207 2.23913 33.665 2.38472 33.28 2.65126L2.91759 25.9383C2.14875 26.5281 1.52656 27.2876 1.09953 28.1574C0.672506 29.0273 0.452191 29.984 0.455769 30.9531V90.0367C0.437984 91.0211 0.651464 91.9959 1.07904 92.8827C1.50661 93.7695 2.13635 94.5436 2.91759 95.1427L33.1341 118.339C33.5191 118.605 33.9748 118.751 34.443 118.757C34.9112 118.763 35.3705 118.629 35.7622 118.372C36.1539 118.116 36.4601 117.748 36.6417 117.317C36.8232 116.885 36.8718 116.409 36.7813 115.95L25.074 60.4949Z" fill="url(#paint17_linear_1276_178)"/>
</g>
<defs>
<linearGradient id="paint0_linear_1276_178" x1="128.335" y1="38.2825" x2="128.335" y2="61.3546" gradientUnits="userSpaceOnUse">
<stop stop-color="#FA465A"/>
<stop offset="0.523958" stop-color="#AD05BC"/>
<stop offset="1" stop-color="#FF1761"/>
</linearGradient>
<linearGradient id="paint1_linear_1276_178" x1="148.517" y1="29.6721" x2="148.517" y2="55.3355" gradientUnits="userSpaceOnUse">
<stop stop-color="#FA465A"/>
<stop offset="0.523958" stop-color="#AD05BC"/>
<stop offset="1" stop-color="#FF1761"/>
</linearGradient>
<linearGradient id="paint2_linear_1276_178" x1="110.197" y1="77.7683" x2="110.197" y2="94.8111" gradientUnits="userSpaceOnUse">
<stop stop-color="#FA465A"/>
<stop offset="0.523958" stop-color="#AD05BC"/>
<stop offset="1" stop-color="#FF1761"/>
</linearGradient>
<linearGradient id="paint3_linear_1276_178" x1="129.023" y1="77.7593" x2="129.023" y2="95.1466" gradientUnits="userSpaceOnUse">
<stop stop-color="#FA465A"/>
<stop offset="0.523958" stop-color="#AD05BC"/>
<stop offset="1" stop-color="#FF1761"/>
</linearGradient>
<linearGradient id="paint4_linear_1276_178" x1="168.757" y1="37.9697" x2="168.757" y2="55.3707" gradientUnits="userSpaceOnUse">
<stop stop-color="#FA465A"/>
<stop offset="0.523958" stop-color="#AD05BC"/>
<stop offset="1" stop-color="#FF1761"/>
</linearGradient>
<linearGradient id="paint5_linear_1276_178" x1="145.559" y1="73.8254" x2="145.559" y2="95.0988" gradientUnits="userSpaceOnUse">
<stop stop-color="#FA465A"/>
<stop offset="0.523958" stop-color="#AD05BC"/>
<stop offset="1" stop-color="#FF1761"/>
</linearGradient>
<linearGradient id="paint6_linear_1276_178" x1="167.679" y1="77.7769" x2="167.679" y2="95.0825" gradientUnits="userSpaceOnUse">
<stop stop-color="#FA465A"/>
<stop offset="0.523958" stop-color="#AD05BC"/>
<stop offset="1" stop-color="#FF1761"/>
</linearGradient>
<linearGradient id="paint7_linear_1276_178" x1="191.534" y1="77.7769" x2="191.534" y2="95.1046" gradientUnits="userSpaceOnUse">
<stop stop-color="#FA465A"/>
<stop offset="0.523958" stop-color="#AD05BC"/>
<stop offset="1" stop-color="#FF1761"/>
</linearGradient>
<linearGradient id="paint8_linear_1276_178" x1="208.51" y1="77.9888" x2="208.51" y2="94.7712" gradientUnits="userSpaceOnUse">
<stop stop-color="#FA465A"/>
<stop offset="0.523958" stop-color="#AD05BC"/>
<stop offset="1" stop-color="#FF1761"/>
</linearGradient>
<linearGradient id="paint9_linear_1276_178" x1="185.023" y1="38.2634" x2="185.023" y2="55.026" gradientUnits="userSpaceOnUse">
<stop stop-color="#FA465A"/>
<stop offset="0.523958" stop-color="#AD05BC"/>
<stop offset="1" stop-color="#FF1761"/>
</linearGradient>
<linearGradient id="paint10_linear_1276_178" x1="218.402" y1="69.4055" x2="218.402" y2="94.7896" gradientUnits="userSpaceOnUse">
<stop stop-color="#FA465A"/>
<stop offset="0.523958" stop-color="#AD05BC"/>
<stop offset="1" stop-color="#FF1761"/>
</linearGradient>
<linearGradient id="paint11_linear_1276_178" x1="226.126" y1="78.1638" x2="226.126" y2="94.7765" gradientUnits="userSpaceOnUse">
<stop stop-color="#FA465A"/>
<stop offset="0.523958" stop-color="#AD05BC"/>
<stop offset="1" stop-color="#FF1761"/>
</linearGradient>
<linearGradient id="paint12_linear_1276_178" x1="112.295" y1="38.3923" x2="112.295" y2="55.0415" gradientUnits="userSpaceOnUse">
<stop stop-color="#FA465A"/>
<stop offset="0.523958" stop-color="#AD05BC"/>
<stop offset="1" stop-color="#FF1761"/>
</linearGradient>
<linearGradient id="paint13_linear_1276_178" x1="104.577" y1="29.6541" x2="104.577" y2="55.0381" gradientUnits="userSpaceOnUse">
<stop stop-color="#FA465A"/>
<stop offset="0.523958" stop-color="#AD05BC"/>
<stop offset="1" stop-color="#FF1761"/>
</linearGradient>
<linearGradient id="paint14_linear_1276_178" x1="61.5441" y1="34.9277" x2="61.5441" y2="87.8754" gradientUnits="userSpaceOnUse">
<stop stop-color="#FA465A"/>
<stop offset="0.523958" stop-color="#AD05BC"/>
<stop offset="1" stop-color="#FF1761"/>
</linearGradient>
<linearGradient id="paint15_linear_1276_178" x1="58.8112" y1="0.294922" x2="58.8112" y2="53.1958" gradientUnits="userSpaceOnUse">
<stop stop-color="#FA465A"/>
<stop offset="0.523958" stop-color="#AD05BC"/>
<stop offset="1" stop-color="#FF1761"/>
</linearGradient>
<linearGradient id="paint16_linear_1276_178" x1="58.8132" y1="69.6082" x2="58.8132" y2="122.56" gradientUnits="userSpaceOnUse">
<stop stop-color="#FA465A"/>
<stop offset="0.523958" stop-color="#AD05BC"/>
<stop offset="1" stop-color="#FF1761"/>
</linearGradient>
<linearGradient id="paint17_linear_1276_178" x1="18.7132" y1="2.23291" x2="18.7132" y2="118.757" gradientUnits="userSpaceOnUse">
<stop stop-color="#FA465A"/>
<stop offset="0.523958" stop-color="#AD05BC"/>
<stop offset="1" stop-color="#FF1761"/>
</linearGradient>
<clipPath id="clip0_1276_178">
<rect width="231.484" height="122.179" fill="white" transform="translate(0.458801 0.312744)"/>
</clipPath>
</defs>
</svg>
