<svg width="255" height="51" viewBox="0 0 255 51" fill="none" xmlns="http://www.w3.org/2000/svg">
<path d="M30.5389 48.8171V23.4391L1.29996 1.28149V48.8171" stroke="url(#paint0_linear_1276_217)" stroke-width="2.39651" stroke-linecap="round" stroke-linejoin="round"/>
<path d="M39.5373 48.8171V23.4391L68.7763 1.28149V48.8171" stroke="url(#paint1_linear_1276_217)" stroke-width="2.39651" stroke-linecap="round" stroke-linejoin="round"/>
<path d="M235.223 18.1337C234.882 18.1286 234.553 18.2572 234.306 18.4918C234.187 18.6117 234.094 18.7545 234.033 18.9116C233.971 19.0686 233.942 19.2366 233.948 19.4052V47.7587C233.942 48.0985 234.071 48.4269 234.306 48.6721C234.553 48.9067 234.882 49.0353 235.223 49.0302C235.391 49.035 235.559 49.0057 235.716 48.9442C235.873 48.8827 236.016 48.7901 236.136 48.6721C236.262 48.5553 236.361 48.4138 236.429 48.2566C236.497 48.0994 236.531 47.9299 236.53 47.7587V34.9215H243.812L250.542 48.5539C250.638 48.7767 250.801 48.9648 251.007 49.0928C251.213 49.2209 251.453 49.2828 251.696 49.2702C251.964 49.2701 252.227 49.1862 252.445 49.0302C252.664 48.8742 252.829 48.6539 252.917 48.3998C252.975 48.2414 252.999 48.0725 252.988 47.9041C252.977 47.7357 252.931 47.5715 252.853 47.422L246.638 34.789C248.703 34.5013 250.604 33.5018 252.011 31.963C252.742 31.193 253.312 30.2837 253.684 29.2893C254.057 28.2948 254.226 27.2354 254.181 26.1743C254.136 25.1132 253.878 24.072 253.422 23.1128C252.966 22.1535 252.322 21.2958 251.527 20.5908C249.777 18.9678 247.466 18.087 245.08 18.1337H235.223ZM249.761 30.5947C248.531 31.7214 246.92 32.3419 245.252 32.3319H236.53V20.7018H245.098C246.801 20.6652 248.454 21.2801 249.718 22.4211C250.316 22.9203 250.797 23.5438 251.129 24.2483C251.461 24.9527 251.635 25.7211 251.639 26.4997C251.643 27.2783 251.477 28.0485 251.153 28.7564C250.829 29.4643 250.354 30.0929 249.761 30.5983V30.5947ZM222.182 49.2702C222.516 49.2527 222.831 49.1075 223.062 48.8646C223.292 48.6217 223.421 48.2995 223.421 47.9646C223.421 47.6298 223.292 47.3076 223.062 47.0647C222.831 46.8218 222.516 46.6766 222.182 46.6591H206.182V34.9681H218.149C218.494 34.9681 218.826 34.8307 219.07 34.5862C219.315 34.3417 219.452 34.0101 219.452 33.6643C219.452 33.3185 219.315 32.9869 219.07 32.7424C218.826 32.4979 218.494 32.3606 218.149 32.3606H206.182V20.6588L222.182 20.7018C222.351 20.7078 222.521 20.6791 222.679 20.6175C222.837 20.5559 222.981 20.4627 223.102 20.3436C223.227 20.2222 223.326 20.0768 223.393 19.9162C223.46 19.7555 223.494 19.5829 223.493 19.4088C223.493 19.2381 223.458 19.0691 223.391 18.9122C223.324 18.7552 223.226 18.6134 223.102 18.4954C222.985 18.3687 222.843 18.2684 222.684 18.2011C222.525 18.1337 222.354 18.101 222.182 18.105L204.874 18.062C204.702 18.0536 204.53 18.0844 204.371 18.152C204.212 18.2196 204.071 18.3223 203.957 18.4524C203.831 18.5683 203.731 18.7096 203.664 18.8671C203.597 19.0246 203.564 19.1946 203.567 19.3658V47.9772C203.575 48.3213 203.716 48.6491 203.959 48.8926C204.202 49.136 204.53 49.2764 204.874 49.2845L222.182 49.2702ZM174.153 48.6577C174.281 48.5437 174.382 48.4032 174.45 48.2461C174.518 48.0891 174.551 47.9191 174.547 47.7479V39.4453L178.426 35.3585L191.321 48.8798C191.499 49.0642 191.728 49.192 191.979 49.2471C192.23 49.3023 192.491 49.2824 192.731 49.1899C192.97 49.0975 193.177 48.9366 193.326 48.7273C193.475 48.518 193.558 48.2696 193.567 48.013C193.573 47.8444 193.544 47.6762 193.482 47.5191C193.421 47.362 193.328 47.2192 193.208 47.0996L180.239 33.4888L192.775 20.3544C192.897 20.2322 192.991 20.0858 193.053 19.9248C193.115 19.7638 193.142 19.5917 193.133 19.4195C193.136 19.2513 193.101 19.0845 193.033 18.9306C192.965 18.7767 192.865 18.6393 192.739 18.5277C192.487 18.2893 192.151 18.1605 191.804 18.1695C191.635 18.1751 191.469 18.2144 191.315 18.2851C191.161 18.3559 191.023 18.4566 190.909 18.5814L174.58 35.7167V19.3336C174.574 18.9909 174.434 18.6642 174.189 18.4243C173.944 18.1843 173.615 18.0503 173.272 18.0513C173.103 18.0479 172.934 18.0787 172.777 18.1419C172.62 18.2051 172.477 18.2994 172.357 18.4191C172.237 18.5388 172.142 18.6814 172.078 18.8386C172.015 18.9957 171.983 19.1641 171.986 19.3336V47.7515C171.98 47.9196 172.009 48.0872 172.071 48.2437C172.132 48.4002 172.226 48.5424 172.345 48.6613C172.462 48.7868 172.604 48.8866 172.762 48.9544C172.92 49.0222 173.09 49.0566 173.261 49.0553C173.433 49.059 173.603 49.0257 173.761 48.9577C173.919 48.8897 174.06 48.7887 174.175 48.6613L174.153 48.6577ZM137.332 49.2702C137.593 49.2851 137.851 49.2145 138.068 49.069C138.285 48.9235 138.448 48.7111 138.532 48.4643L141.237 41.9848H157.151L159.855 48.4643C159.939 48.7108 160.101 48.9231 160.317 49.0686C160.533 49.2141 160.791 49.2849 161.051 49.2702C161.263 49.2678 161.472 49.2138 161.658 49.1128C161.845 49.0119 162.004 48.867 162.123 48.6906C162.241 48.5143 162.314 48.3119 162.336 48.1009C162.359 47.8898 162.33 47.6765 162.251 47.4793L159.206 40.1868V40.1617L150.377 18.9181C150.349 18.8464 150.313 18.7676 150.27 18.6817C150.27 18.6817 150.241 18.6817 150.18 18.5921L150.094 18.4847C150.094 18.4847 150.044 18.456 149.983 18.3987L149.897 18.3307C149.754 18.2307 149.59 18.1645 149.417 18.1372H149.31L149.177 18.1337L149.023 18.1551H148.916C148.752 18.1859 148.597 18.2519 148.461 18.3486L148.372 18.4166L148.264 18.5026L148.175 18.61L148.089 18.6996C148.046 18.7855 148.006 18.8643 147.978 18.936L139.148 40.1617V40.1868L136.118 47.4686C136.047 47.6256 136.011 47.7959 136.011 47.9682C136.011 48.1405 136.047 48.3109 136.118 48.4679C136.221 48.7021 136.389 48.9022 136.601 49.0449C136.814 49.1876 137.062 49.267 137.318 49.2738L137.332 49.2702ZM142.304 39.3773L149.177 22.8115L156.065 39.3809L142.304 39.3773ZM97.3274 24.1153L109.036 43.4032L109.058 43.4247V43.4462C109.09 43.4792 109.119 43.5152 109.144 43.5537L109.23 43.6396L109.316 43.7292C109.356 43.7534 109.393 43.7822 109.427 43.8151C109.498 43.8581 109.513 43.8653 109.47 43.8366C109.47 43.8366 109.495 43.8366 109.495 43.8581H109.534C109.576 43.8843 109.621 43.9071 109.667 43.9262L109.774 43.9692C109.817 43.9819 109.862 43.9879 109.907 43.9871C109.941 44.0058 109.979 44.0145 110.018 44.0121C110.101 44.0408 110.192 44.0408 110.276 44.0121C110.314 44.0145 110.353 44.0058 110.387 43.9871C110.43 43.9882 110.474 43.9821 110.516 43.9692C110.562 43.9692 110.598 43.9369 110.627 43.9262C110.673 43.9071 110.717 43.8843 110.759 43.8581C110.816 43.8295 110.838 43.8223 110.82 43.8366C110.802 43.851 110.791 43.8581 110.867 43.8151C110.9 43.7831 110.936 43.7543 110.974 43.7292C111.006 43.7011 111.036 43.6712 111.064 43.6396L111.15 43.5537C111.175 43.5152 111.203 43.4792 111.235 43.4462V43.4247L111.257 43.4032L122.966 24.1153V47.9664C122.961 48.1382 122.99 48.3092 123.052 48.4696C123.113 48.63 123.206 48.7767 123.324 48.9013C123.569 49.137 123.898 49.2659 124.237 49.2595C124.409 49.2599 124.579 49.2264 124.738 49.1609C124.897 49.0954 125.041 48.9991 125.163 48.8776C125.284 48.7561 125.381 48.6118 125.446 48.453C125.512 48.2941 125.545 48.1239 125.545 47.9521V19.4625C125.565 19.174 125.479 18.888 125.302 18.6593C125.125 18.4307 124.869 18.2754 124.585 18.2232C124.312 18.1278 124.014 18.1348 123.746 18.2428C123.477 18.3509 123.258 18.5527 123.127 18.8106L110.136 40.2262L97.1519 18.8106C97.0207 18.5524 96.8002 18.3505 96.5315 18.2425C96.2627 18.1345 95.9639 18.1276 95.6905 18.2232C95.4067 18.2762 95.1523 18.4318 94.9759 18.6604C94.7995 18.889 94.7134 19.1745 94.7342 19.4625V47.9664C94.7291 48.1382 94.7582 48.3093 94.8197 48.4697C94.8811 48.6302 94.9738 48.7769 95.0923 48.9013C95.346 49.1392 95.6831 49.2678 96.0308 49.2595C96.1991 49.2628 96.3664 49.2329 96.5232 49.1715C96.6799 49.11 96.823 49.0182 96.9441 48.9013C97.0625 48.7767 97.1551 48.63 97.2165 48.4696C97.278 48.3092 97.3071 48.1382 97.3023 47.9664L97.3274 24.1153Z" fill="url(#paint2_linear_1276_217)"/>
<defs>
<linearGradient id="paint0_linear_1276_217" x1="15.9194" y1="1.28149" x2="15.9194" y2="48.8171" gradientUnits="userSpaceOnUse">
<stop stop-color="#FA465A"/>
<stop offset="0.523958" stop-color="#AD05BC"/>
<stop offset="1" stop-color="#FF1761"/>
</linearGradient>
<linearGradient id="paint1_linear_1276_217" x1="54.1568" y1="1.28149" x2="54.1568" y2="48.8171" gradientUnits="userSpaceOnUse">
<stop stop-color="#FA465A"/>
<stop offset="0.523958" stop-color="#AD05BC"/>
<stop offset="1" stop-color="#FF1761"/>
</linearGradient>
<linearGradient id="paint2_linear_1276_217" x1="174.46" y1="18.051" x2="174.46" y2="49.2845" gradientUnits="userSpaceOnUse">
<stop stop-color="#FA465A"/>
<stop offset="0.523958" stop-color="#AD05BC"/>
<stop offset="1" stop-color="#FF1761"/>
</linearGradient>
</defs>
</svg>
