<svg width="268" height="89" viewBox="0 0 268 89" fill="none" xmlns="http://www.w3.org/2000/svg">
<g clip-path="url(#clip0_1276_198)">
<path d="M267.148 21.2091C263.521 0.384945 200.952 -6.11363 127.39 6.69356C96.4965 12.0749 68.6013 20.0122 46.8778 28.9417C50.2148 29.0148 52.6896 29.78 54.1933 31.2797C55.369 32.4567 55.9628 34.0721 55.9628 36.0846V38.1503H48.7495V36.3264C48.7495 34.8067 47.8382 33.8648 46.2242 33.8648C44.8679 33.8648 44.0323 34.4772 43.7627 35.6834C43.6723 36.1602 43.6823 36.6507 43.7919 37.1234C44.5637 40.2784 55.2747 42.2378 56.4397 48.0602C56.5924 48.8094 56.7997 50.4128 56.4729 52.707C55.8047 57.4029 51.6787 59.2148 46.4261 59.2148C39.0947 59.2148 36.1164 55.7424 36.1164 50.9548L36.1217 48.6899H43.8543L43.8583 51.5114C43.8583 53.0975 45.0114 53.9729 46.5816 53.9729C48.0694 53.9729 48.9382 53.3738 49.2384 52.149C49.3779 51.5858 49.439 50.7555 49.1852 50.1206C47.7546 46.5312 37.753 44.8548 36.5215 39.0509C36.2466 37.7464 36.224 36.6359 36.4525 35.2318C36.5697 34.5357 36.7853 33.8599 37.0928 33.2245C12.9967 44.4934 -1.09899 56.8928 0.763435 67.5984C4.39398 88.4252 66.962 94.9172 140.523 82.11C172.859 76.4815 201.93 68.0554 224.054 58.6131C223.734 58.629 223.423 58.6636 223.091 58.6636C218.057 58.6636 213.561 56.7772 213.095 51.631C213.013 50.6944 212.998 50.3026 212.995 49.7685L212.998 37.9377C212.998 37.4276 213.058 36.5323 213.115 36.07C213.711 31.0964 217.643 29.0454 223.094 29.0454C227.312 29.0454 232.483 30.2555 233.052 36.074C233.127 36.8046 233.119 37.5844 233.118 37.8407V38.9579H225.833V37.2908C225.833 37.2549 225.822 36.6319 225.743 36.2427C225.623 35.6489 225.117 34.2726 223.042 34.2726C220.992 34.2726 220.461 35.6515 220.328 36.244C220.252 36.5695 220.217 37.0371 220.217 37.5551V50.4128C220.21 50.8592 220.232 51.2085 220.278 51.4649C220.313 51.6668 220.681 53.4389 223.067 53.4389C225.436 53.4389 225.802 51.6668 225.836 51.4649C225.898 51.1169 225.906 50.7024 225.903 50.4128V46.4289H223.037V42.1382H233.174V49.7712C233.171 50.2906 233.163 50.6745 233.075 51.631C232.953 52.9806 232.528 54.1231 231.861 55.0994C255.325 43.9581 268.986 31.7593 267.148 21.2091ZM76.4043 58.1163L72.714 33.0412H72.5812L68.7965 58.1163H61.0187L66.25 29.7986H78.9403L84.1397 58.1163H76.4043ZM113.815 58.1163L113.644 33.5261H113.519L108.942 58.1163H101.643L97.089 33.5261H96.9588L96.7928 58.1163H89.5596L90.1866 29.7986H101.821L105.208 50.8339H105.374L108.771 29.7986H120.4L121.024 58.1163H113.815ZM147.877 52.6286C147.098 58.1136 141.725 59.0727 137.927 59.0727C131.621 59.0727 127.721 56.3774 127.721 50.8924L127.725 48.6553H135.364L135.37 51.4423C135.37 52.9554 136.436 53.8813 138.084 53.8813C139.553 53.8813 140.414 53.2915 140.713 52.08C140.851 51.5154 140.908 50.6918 140.663 50.0701C139.255 46.5485 129.332 44.8229 128.126 39.1094C127.85 37.8142 127.83 36.7143 128.057 35.3247C128.896 30.1453 133.867 29.0693 137.868 29.0693C141.447 29.0693 144.052 29.8504 145.614 31.4126C146.779 32.5789 147.369 34.1797 147.369 36.1709V38.214H140.225V36.4114C140.225 34.8678 139.267 33.9751 137.728 33.9751C136.362 33.9751 135.536 34.5822 135.265 35.7764C135.177 36.2483 135.189 36.7334 135.299 37.2005C136.064 40.3408 146.681 42.2604 147.843 48.0283C147.994 48.7643 148.199 50.3437 147.877 52.6286ZM174.336 50.0555C174.347 50.5868 174.295 51.6482 174.266 51.9206C173.83 56.5859 170.493 58.9571 164.373 58.9571C158.229 58.9571 154.889 56.5859 154.456 51.9206C154.407 51.3019 154.384 50.6814 154.386 50.0608V29.7919H161.695V50.6997C161.687 51.1673 161.711 51.5127 161.757 51.7532C161.848 52.2181 162.31 53.7272 164.373 53.7272C166.429 53.7272 166.892 52.2168 166.989 51.7585C167.03 51.5114 167.055 51.1488 167.055 50.6984V29.7919H174.336V50.0555ZM205.826 57.828H195.656L188.829 35.3978H188.715L189.093 57.828H182.005V29.7986H192.602L198.911 51.3454H199.059L198.686 29.7986H205.826V57.828Z" fill="url(#paint0_linear_1276_198)"/>
</g>
<defs>
<linearGradient id="paint0_linear_1276_198" x1="133.956" y1="0.126953" x2="133.956" y2="88.6783" gradientUnits="userSpaceOnUse">
<stop stop-color="#FA465A"/>
<stop offset="0.523958" stop-color="#AD05BC"/>
<stop offset="1" stop-color="#FF1761"/>
</linearGradient>
<clipPath id="clip0_1276_198">
<rect width="266.718" height="88.5504" fill="white" transform="translate(0.597107 0.127197)"/>
</clipPath>
</defs>
</svg>
