<svg width="111" height="111" viewBox="0 0 111 111" fill="none" xmlns="http://www.w3.org/2000/svg">
<g clip-path="url(#clip0_1276_200)">
<path d="M52.5875 75.105L62.3938 45.3106L67.117 46.8476L63.7421 35.6953H92.9304C98.2266 35.6953 100.982 40.4272 99.0786 46.246L97.2298 51.8759C97.2056 51.9484 97.1793 52.0187 97.1507 52.0955L97.0717 52.3019C96.5618 53.6873 95.8572 54.993 94.9791 56.1797C92.2014 59.9564 87.9724 62.4069 84.2066 62.4288H83.9278H69.5521L65.3933 75.0984L52.5875 75.105ZM71.7149 55.8503H79.4901C81.4356 55.8503 83.5874 54.1112 84.2857 51.9748L86.196 46.1625C86.8987 44.0239 85.8864 42.287 83.9453 42.287H76.1679L71.7149 55.8503ZM18.9286 75.1028C18.5963 75.0914 18.265 75.0614 17.9361 75.0128C17.3853 74.9467 16.8448 74.8132 16.3266 74.6153C15.2968 74.2267 14.3833 73.7019 13.6917 72.8214C13.274 72.2856 12.9429 71.6877 12.7101 71.0494C12.5899 70.725 12.4923 70.3926 12.4181 70.0547C12.0426 68.3486 12.1985 66.6359 12.6684 64.9671C12.7079 64.8222 12.9012 64.1964 12.9012 64.1964L22.2683 35.7019H35.1795L25.6718 64.6444C25.1536 66.2275 25.5554 67.635 26.6906 68.23C27.0557 68.4296 27.4671 68.5289 27.8829 68.5177H34.266L45.0429 35.7019H59.6447L48.9448 46.8542L54.7218 45.3172L44.9111 75.105L18.9286 75.1028Z" fill="url(#paint0_linear_1276_200)"/>
</g>
<defs>
<linearGradient id="paint0_linear_1276_200" x1="55.9449" y1="35.6953" x2="55.9449" y2="75.105" gradientUnits="userSpaceOnUse">
<stop stop-color="#FA465A"/>
<stop offset="0.523958" stop-color="#AD05BC"/>
<stop offset="1" stop-color="#FF1761"/>
</linearGradient>
<clipPath id="clip0_1276_200">
<rect width="109.947" height="109.947" fill="white" transform="translate(0.969238 0.428955)"/>
</clipPath>
</defs>
</svg>
